<?xml version="1.0" encoding="UTF-8"?>
<svg width="64" height="64" viewBox="0 0 64 64" fill="none" xmlns="http://www.w3.org/2000/svg">
  <!-- Gear icons for skills -->
  <path d="M32 16C34.2091 16 36 14.2091 36 12C36 9.79086 34.2091 8 32 8C29.7909 8 28 9.79086 28 12C28 14.2091 29.7909 16 32 16Z" fill="#10B981" stroke="#059669" stroke-width="2"/>
  <path d="M32 36C34.2091 36 36 34.2091 36 32C36 29.7909 34.2091 28 32 28C29.7909 28 28 29.7909 28 32C28 34.2091 29.7909 36 32 36Z" fill="#10B981" stroke="#059669" stroke-width="2"/>
  <path d="M32 56C34.2091 56 36 54.2091 36 52C36 49.7909 34.2091 48 32 48C29.7909 48 28 49.7909 28 52C28 54.2091 29.7909 56 32 56Z" fill="#10B981" stroke="#059669" stroke-width="2"/>
  <path d="M16 26C18.2091 26 20 24.2091 20 22C20 19.7909 18.2091 18 16 18C13.7909 18 12 19.7909 12 22C12 24.2091 13.7909 26 16 26Z" fill="#10B981" stroke="#059669" stroke-width="2"/>
  <path d="M16 46C18.2091 46 20 44.2091 20 42C20 39.7909 18.2091 38 16 38C13.7909 38 12 39.7909 12 42C12 44.2091 13.7909 46 16 46Z" fill="#10B981" stroke="#059669" stroke-width="2"/>
  <path d="M48 26C50.2091 26 52 24.2091 52 22C52 19.7909 50.2091 18 48 18C45.7909 18 44 19.7909 44 22C44 24.2091 45.7909 26 48 26Z" fill="#10B981" stroke="#059669" stroke-width="2"/>
  <path d="M48 46C50.2091 46 52 44.2091 52 42C52 39.7909 50.2091 38 48 38C45.7909 38 44 39.7909 44 42C44 44.2091 45.7909 46 48 46Z" fill="#10B981" stroke="#059669" stroke-width="2"/>
  
  <!-- Connecting lines -->
  <path d="M31 17L31 27" stroke="#059669" stroke-width="2"/>
  <path d="M31 37L31 47" stroke="#059669" stroke-width="2"/>
  <path d="M20 23L28 29" stroke="#059669" stroke-width="2"/>
  <path d="M20 41L28 35" stroke="#059669" stroke-width="2"/>
  <path d="M44 23L36 29" stroke="#059669" stroke-width="2"/>
  <path d="M44 41L36 35" stroke="#059669" stroke-width="2"/>
</svg>